<svg viewBox="0 0 170 70" xmlns="http://www.w3.org/2000/svg" xmlns:xlink="http://www.w3.org/1999/xlink" width="170.000000" height="70.000000" fill="none" customFrame="#000000">
	<defs>
		<clipPath id="clipPath_0">
			<rect width="21.000000" height="70.000000" x="0.000000" y="0.000000" fill="rgb(255,255,255)" />
		</clipPath>
		<clipPath id="clipPath_1">
			<rect width="10.000000" height="85.000000" x="0.000000" y="-15.000000" fill="rgb(255,255,255)" />
		</clipPath>
		<clipPath id="clipPath_2">
			<rect width="10.000000" height="85.000000" x="0.000000" y="0.000000" fill="rgb(255,255,255)" transform="matrix(-1,0,0,1,21,-15)" />
		</clipPath>
	</defs>
	<g id="LOGO">
		<g id="组合 160">
			<rect id="矩形 233" width="10.000000" height="70.000000" x="36.000000" y="0.000000" fill="rgb(255,241,118)" />
			<rect id="矩形 235" width="10.000000" height="70.000000" x="46.000000" y="0.000000" fill="rgb(79,195,247)" />
			<rect id="矩形 234" width="10.000000" height="70.000000" x="26.000000" y="0.000000" fill="rgb(229,115,115)" />
		</g>
		<g id="组合 222">
			<path id="" d="M74.2368 45.5444L93.7705 45.5444L93.7705 48.8989L74.2368 48.8989L74.2368 45.5444ZM76.6831 49.5728L80.272 50.5908C79.5981 51.8408 78.7266 53.0371 77.6572 54.1797C76.5879 55.3223 75.5161 56.272 74.4419 57.0288C74.2173 56.814 73.9194 56.5601 73.5483 56.2671C73.1821 55.979 72.8062 55.6982 72.4204 55.4248C72.0347 55.1562 71.7026 54.939 71.4243 54.7729C72.4985 54.1675 73.5044 53.4009 74.4419 52.4731C75.3843 51.5405 76.1313 50.5737 76.6831 49.5728ZM87.7354 51.1694L90.5918 49.3823C91.29 49.9097 92.0249 50.5005 92.7964 51.1548C93.5679 51.8091 94.3003 52.4658 94.9937 53.125C95.6919 53.7793 96.2534 54.3823 96.6782 54.9341L93.6094 56.9409C93.2236 56.4038 92.7012 55.7935 92.042 55.1099C91.3877 54.4312 90.6797 53.7476 89.918 53.0591C89.1611 52.3657 88.4336 51.7358 87.7354 51.1694ZM70.6846 32.1411L97.3813 32.1411L97.3813 35.4736L70.6846 35.4736L70.6846 32.1411ZM76.2363 29.5117L79.9424 29.5117L79.9424 37.8247L76.2363 37.8247L76.2363 29.5117ZM87.9551 29.5117L91.7051 29.5117L91.7051 37.8247L87.9551 37.8247L87.9551 29.5117ZM82.3154 42.4683L86.0508 42.4683L86.0508 54.1943C86.0508 55.0391 85.9507 55.7007 85.7505 56.1792C85.5503 56.6577 85.1597 57.019 84.5786 57.2632C84.0122 57.5122 83.3384 57.6636 82.5571 57.7173C81.7759 57.771 80.8701 57.7905 79.8398 57.7759C79.7715 57.2925 79.6494 56.7456 79.4736 56.1353C79.2979 55.5249 79.105 54.9878 78.895 54.5239C79.4663 54.5435 80.0425 54.5581 80.6235 54.5679C81.2095 54.5728 81.5977 54.5728 81.7881 54.5679C82.0029 54.563 82.1445 54.5264 82.2129 54.458C82.2812 54.3848 82.3154 54.2676 82.3154 54.1064L82.3154 42.4683ZM85.4062 36.9897C86.0801 37.6538 86.8979 38.2959 87.8599 38.916C88.8218 39.5312 89.874 40.1147 91.0166 40.6665C92.1592 41.2134 93.3481 41.6992 94.5835 42.124C95.8237 42.5439 97.0615 42.8931 98.2969 43.1714C98.0283 43.4204 97.7427 43.7305 97.4399 44.1016C97.1421 44.4727 96.8613 44.8486 96.5977 45.2295C96.334 45.6104 96.1167 45.957 95.9458 46.2695C94.7007 45.9033 93.4507 45.4517 92.1958 44.9146C90.9458 44.3726 89.7324 43.7598 88.5557 43.0762C87.3838 42.3877 86.2827 41.6455 85.2524 40.8496C84.2271 40.0488 83.3066 39.2114 82.4912 38.3374L85.4062 36.9897ZM83.2529 35.5103L86.6001 36.8652C85.0425 39.1699 82.9966 41.1035 80.4624 42.666C77.9282 44.2236 75.1108 45.4688 72.0103 46.4014C71.8589 46.1035 71.6538 45.7568 71.395 45.3613C71.1362 44.9609 70.8604 44.5728 70.5674 44.1968C70.2793 43.8159 70.0181 43.5132 69.7837 43.2886C71.7222 42.7954 73.5581 42.1729 75.2915 41.4209C77.0249 40.6641 78.5776 39.7876 79.9497 38.7915C81.3218 37.7905 82.4229 36.6968 83.2529 35.5103ZM100.479 45.1562L127.506 45.1562L127.506 47.9468L100.479 47.9468L100.479 45.1562ZM112.103 47.6611L115.597 47.6611L115.597 57.688L112.103 57.688L112.103 47.6611ZM109.173 43.3105L112.704 43.8892C111.722 45.9058 110.36 47.7197 108.617 49.3311C106.874 50.9375 104.554 52.3096 101.659 53.4473C101.537 53.1641 101.361 52.8516 101.131 52.5098C100.907 52.1631 100.665 51.8335 100.406 51.521C100.147 51.2085 99.8984 50.9619 99.6592 50.7812C101.432 50.1904 102.943 49.502 104.193 48.7158C105.443 47.9297 106.476 47.0776 107.291 46.1597C108.111 45.2417 108.739 44.292 109.173 43.3105ZM120.064 46.0059C120.606 46.6895 121.305 47.3291 122.159 47.9248C123.014 48.5205 123.973 49.043 125.038 49.4922C126.102 49.9365 127.201 50.2881 128.333 50.5469C127.987 50.8594 127.608 51.2817 127.198 51.814C126.788 52.3413 126.466 52.8125 126.231 53.2275C125.021 52.8516 123.866 52.3511 122.767 51.7261C121.673 51.0962 120.677 50.3711 119.779 49.5508C118.88 48.7256 118.114 47.8345 117.479 46.8774L120.064 46.0059ZM105.211 49.3896L121.515 49.3896L121.515 52.1729L108.653 52.1729L108.653 56.6333L105.211 56.6333L105.211 49.3896ZM119.632 49.3896L123.104 49.3896L123.104 53.7036C123.104 54.4067 123.021 54.9463 122.855 55.3223C122.689 55.7031 122.364 55.9961 121.881 56.2012C121.417 56.3916 120.846 56.5039 120.167 56.5381C119.493 56.5723 118.729 56.5894 117.875 56.5894C117.806 56.1743 117.682 55.7349 117.501 55.271C117.325 54.812 117.149 54.3994 116.974 54.0332C117.428 54.0527 117.875 54.0674 118.314 54.0771C118.753 54.0869 119.051 54.0894 119.208 54.0845C119.374 54.0796 119.486 54.0479 119.544 53.9893C119.603 53.9258 119.632 53.8232 119.632 53.6816L119.632 49.3896ZM106.954 40.6738L106.954 41.8823L121.075 41.8823L121.075 40.6738L106.954 40.6738ZM106.954 37.4512L106.954 38.6523L121.075 38.6523L121.075 37.4512L106.954 37.4512ZM103.504 35.2905L124.686 35.2905L124.686 44.0503L103.504 44.0503L103.504 35.2905ZM100.846 30.9692L127.184 30.9692L127.184 33.8403L100.846 33.8403L100.846 30.9692ZM107.298 29.5117L110.785 29.5117L110.785 34.8584L107.298 34.8584L107.298 29.5117ZM117.083 29.5117L120.621 29.5117L120.621 34.8291L117.083 34.8291L117.083 29.5117Z" fill="rgb(255,255,255)" fill-rule="nonzero" />
			<g id="组合 221">
				<path id="" d="M140 47.061C139.161 47.061 138.51 46.8763 138.05 46.5068C137.589 46.1357 137.333 45.6003 137.281 44.9004L138.531 44.9004C138.576 45.2666 138.724 45.5319 138.975 45.6963C139.226 45.8591 139.59 45.9404 140.069 45.9404C141.01 45.9404 141.48 45.6304 141.48 45.0103C141.48 44.7368 141.386 44.5285 141.199 44.3853C141.014 44.242 140.707 44.1468 140.279 44.0996L139.549 44.0093C138.149 43.8368 137.449 43.1938 137.449 42.0806C137.449 41.4328 137.683 40.9242 138.15 40.5547C138.617 40.1852 139.253 40.0005 140.059 40.0005C140.84 40.0005 141.451 40.1771 141.89 40.5303C142.33 40.8835 142.576 41.3937 142.63 42.061L141.37 42.061C141.344 41.7274 141.222 41.4841 141.004 41.3311C140.787 41.1764 140.463 41.0991 140.03 41.0991C139.597 41.0991 139.271 41.1764 139.051 41.3311C138.831 41.4841 138.721 41.7005 138.721 41.9805C138.721 42.2327 138.817 42.4289 139.009 42.5688C139.203 42.7088 139.513 42.8057 139.939 42.8594L140.77 42.9692C141.424 43.0571 141.92 43.263 142.259 43.5869C142.599 43.9092 142.769 44.3503 142.769 44.9102C142.769 45.6035 142.522 46.1357 142.029 46.5068C141.536 46.8763 140.86 47.061 140 47.061ZM145.91 47.0903C145.171 47.0903 144.59 46.8869 144.169 46.48C143.749 46.0731 143.539 45.4798 143.539 44.7002L143.539 44.0801C143.539 43.307 143.749 42.7186 144.169 42.3149C144.59 41.9113 145.171 41.7095 145.91 41.7095C146.637 41.7095 147.204 41.8796 147.609 42.2197C148.016 42.5599 148.219 43.0303 148.219 43.6309L148.219 43.6895L147.011 43.6895L147.011 43.6504C147.011 43.39 146.915 43.1849 146.725 43.0352C146.535 42.8854 146.273 42.8105 145.939 42.8105C145.553 42.8105 145.262 42.9139 145.065 43.1206C144.868 43.3273 144.769 43.6536 144.769 44.0996L144.769 44.6904C144.769 45.1429 144.87 45.4709 145.07 45.6743C145.27 45.8778 145.57 45.9795 145.971 45.9795C146.29 45.9795 146.541 45.9079 146.725 45.7646C146.909 45.6214 147.001 45.4269 147.001 45.1812L147.001 45.1396L148.209 45.1396L148.209 45.1812C148.209 45.7736 148.006 46.2399 147.599 46.5801C147.194 46.9202 146.631 47.0903 145.91 47.0903ZM149.21 41.7998L150.42 41.7998L150.42 42.3906C150.593 42.1562 150.811 41.9813 151.075 41.8657C151.338 41.7485 151.627 41.6899 151.939 41.6899C152.133 41.6899 152.296 41.703 152.43 41.729L152.43 42.9106C152.204 42.8228 151.957 42.7788 151.69 42.7788C151.296 42.7788 150.991 42.8944 150.774 43.1255C150.558 43.355 150.45 43.6862 150.45 44.1191L150.45 47L149.21 47L149.21 41.7998ZM154.099 44.7393L154.099 44.7588C154.099 45.5921 154.527 46.0088 155.381 46.0088C155.668 46.0088 155.902 45.9559 156.084 45.8501C156.268 45.7427 156.373 45.5929 156.399 45.4009L156.409 45.3691L157.62 45.3691L157.62 45.4302C157.587 45.9299 157.366 46.3319 156.956 46.6362C156.546 46.939 156.004 47.0903 155.33 47.0903C154.563 47.0903 153.961 46.8804 153.523 46.4604C153.087 46.0405 152.869 45.4269 152.869 44.6196L152.869 44.1704C152.869 43.3761 153.082 42.7674 153.509 42.3442C153.937 41.9211 154.523 41.7095 155.269 41.7095C156.016 41.7095 156.603 41.9194 157.029 42.3394C157.456 42.7593 157.669 43.3599 157.669 44.1411L157.669 44.7393L154.099 44.7393ZM155.269 42.769C154.536 42.769 154.147 43.1426 154.099 43.8896L156.431 43.8896L156.431 43.8188C156.431 43.4722 156.326 43.2109 156.116 43.0352C155.906 42.8577 155.624 42.769 155.269 42.769ZM159.809 44.7393L159.809 44.7588C159.809 45.5921 160.237 46.0088 161.091 46.0088C161.378 46.0088 161.612 45.9559 161.794 45.8501C161.978 45.7427 162.083 45.5929 162.109 45.4009L162.119 45.3691L163.33 45.3691L163.33 45.4302C163.297 45.9299 163.076 46.3319 162.666 46.6362C162.256 46.939 161.714 47.0903 161.04 47.0903C160.273 47.0903 159.671 46.8804 159.233 46.4604C158.797 46.0405 158.579 45.4269 158.579 44.6196L158.579 44.1704C158.579 43.3761 158.792 42.7674 159.219 42.3442C159.647 41.9211 160.233 41.7095 160.979 41.7095C161.726 41.7095 162.313 41.9194 162.739 42.3394C163.166 42.7593 163.379 43.3599 163.379 44.1411L163.379 44.7393L159.809 44.7393ZM160.979 42.769C160.246 42.769 159.857 43.1426 159.809 43.8896L162.141 43.8896L162.141 43.8188C162.141 43.4722 162.036 43.2109 161.826 43.0352C161.616 42.8577 161.334 42.769 160.979 42.769ZM164.37 41.7998L165.58 41.7998L165.58 42.3589C165.766 42.1603 165.991 42.0081 166.254 41.9023C166.518 41.7949 166.803 41.7412 167.109 41.7412C167.709 41.7412 168.177 41.9194 168.51 42.2759C168.844 42.6323 169.011 43.1271 169.011 43.7603L169.011 47L167.77 47L167.77 44.0093C167.77 43.2297 167.427 42.8398 166.74 42.8398C166.387 42.8398 166.11 42.9416 165.91 43.145C165.71 43.3485 165.61 43.6536 165.61 44.0605L165.61 47L164.37 47L164.37 41.7998Z" fill="rgb(255,255,255)" fill-opacity="0.5" fill-rule="nonzero" />
				<path id="" d="M140.491 38.1099C139.563 38.1099 138.841 37.8568 138.323 37.3506C137.807 36.8428 137.549 36.0859 137.549 35.0801L137.549 34.001C137.549 32.9935 137.809 32.2367 138.328 31.7305C138.849 31.2243 139.573 30.9712 140.501 30.9712C141.347 30.9712 142.022 31.1795 142.525 31.5962C143.028 32.0129 143.279 32.5907 143.279 33.3296L143.279 33.4102L141.971 33.4102L141.971 33.3711C141.971 32.9837 141.84 32.6785 141.58 32.4556C141.32 32.2326 140.96 32.1211 140.501 32.1211C139.954 32.1211 139.546 32.2814 139.275 32.6021C139.005 32.9211 138.87 33.4102 138.87 34.0693L138.87 35.0605C138.87 35.6937 139.007 36.1641 139.28 36.4717C139.554 36.7777 139.964 36.9307 140.511 36.9307C140.97 36.9307 141.328 36.8224 141.585 36.606C141.842 36.3879 141.971 36.0892 141.971 35.71L141.971 35.6611L143.27 35.6611L143.27 35.71C143.27 36.4701 143.02 37.0601 142.52 37.48C142.02 37.8999 141.344 38.1099 140.491 38.1099ZM144.27 31.1006L145.51 31.1006L145.51 33.3491C145.69 33.1489 145.91 32.9976 146.169 32.895C146.429 32.7925 146.709 32.7412 147.009 32.7412C147.609 32.7412 148.077 32.9178 148.41 33.271C148.744 33.6242 148.911 34.1206 148.911 34.7603L148.911 38L147.67 38L147.67 35.0093C147.67 34.2297 147.327 33.8398 146.64 33.8398C146.287 33.8398 146.01 33.9416 145.81 34.145C145.61 34.3485 145.51 34.6536 145.51 35.0605L145.51 38L144.27 38L144.27 31.1006ZM152.14 32.7412C152.879 32.7412 153.447 32.908 153.845 33.2417C154.242 33.5737 154.44 34.0531 154.44 34.6797L154.44 38L153.239 38L153.239 37.519C153.032 37.7127 152.813 37.8519 152.58 37.9365C152.347 38.0195 152.064 38.061 151.73 38.061C151.104 38.061 150.628 37.9211 150.304 37.6411C149.982 37.3612 149.821 36.964 149.821 36.4497C149.821 35.9565 149.992 35.5806 150.334 35.3218C150.677 35.0614 151.173 34.9312 151.821 34.9312L153.21 34.9312L153.21 34.6211C153.21 34.001 152.844 33.6909 152.111 33.6909C151.777 33.6909 151.535 33.7511 151.384 33.8716C151.234 33.9904 151.159 34.1434 151.159 34.3306L151.159 34.3599L149.98 34.3599L149.98 34.3306C149.98 33.8374 150.174 33.4492 150.563 33.166C150.954 32.8828 151.48 32.7412 152.14 32.7412ZM151.999 37.0698C152.806 37.0698 153.21 36.7467 153.21 36.1006L153.21 35.7808L152.05 35.7808C151.697 35.7808 151.436 35.8328 151.269 35.937C151.103 36.0396 151.02 36.2007 151.02 36.4204C151.02 36.6271 151.101 36.7874 151.264 36.9014C151.428 37.0137 151.673 37.0698 151.999 37.0698Z" fill="rgb(255,255,255)" fill-opacity="0.5" fill-rule="nonzero" />
			</g>
		</g>
		<g id="容器 28" clip-path="url(#clipPath_0)" customFrame="url(#clipPath_0)">
			<rect id="容器 28" width="21.000000" height="70.000000" x="0.000000" y="0.000000" />
			<g id="容器 1" clip-path="url(#clipPath_1)" customFrame="url(#clipPath_1)">
				<rect id="容器 1" width="10.000000" height="85.000000" x="0.000000" y="-15.000000" />
				<path id="矩形 1" d="M9.53673e-06 0L0 15L9.99998 25L10 10L9.53673e-06 0Z" fill="rgb(255,255,255)" fill-rule="evenodd" transform="matrix(1,0,0,-1,0,10)" />
				<path id="矩形 2" d="M9.53673e-06 0L0 15L9.99998 25L10 10L9.53673e-06 0Z" fill="rgb(255,255,255)" fill-rule="evenodd" transform="matrix(1,0,0,-1,0,35)" />
				<path id="矩形 3" d="M9.53673e-06 0L0 15L9.99998 25L10 10L9.53673e-06 0Z" fill="rgb(255,255,255)" fill-rule="evenodd" transform="matrix(1,0,0,-1,0,60)" />
				<path id="矩形 4" d="M9.53673e-06 0L0 15L9.99998 25L10 10L9.53673e-06 0Z" fill="rgb(255,255,255)" fill-rule="evenodd" transform="matrix(1,0,0,-1,0,85)" />
			</g>
			<g id="容器 2" clip-path="url(#clipPath_2)" customFrame="url(#clipPath_2)">
				<rect id="容器 2" width="10.000000" height="85.000000" x="0.000000" y="0.000000" transform="matrix(-1,0,0,1,21,-15)" />
				<path id="矩形 1" d="M9.53673e-06 0L0 15L9.99998 25L10 10L9.53673e-06 0Z" fill="rgb(255,255,255)" fill-rule="evenodd" transform="matrix(-1,0,0,-1,21,10)" />
				<path id="矩形 2" d="M9.53673e-06 0L0 15L9.99998 25L10 10L9.53673e-06 0Z" fill="rgb(255,255,255)" fill-rule="evenodd" transform="matrix(-1,0,0,-1,21,35)" />
				<path id="矩形 3" d="M9.53673e-06 0L0 15L9.99998 25L10 10L9.53673e-06 0Z" fill="rgb(255,255,255)" fill-rule="evenodd" transform="matrix(-1,0,0,-1,21,60)" />
				<path id="矩形 4" d="M9.53673e-06 0L0 15L9.99998 25L10 10L9.53673e-06 0Z" fill="rgb(255,255,255)" fill-rule="evenodd" transform="matrix(-1,0,0,-1,21,85)" />
			</g>
		</g>
	</g>
</svg>
